# xmcd CD database file
#
# Track frame offsets:
#	150
#	17010
#	34477
#	52352
#	70335
#	88637
#	107985
#	124295
#	137797
#	160277
#	187850
#	217032
#	231195
#	252820
#	277990
#	313837
#
# Disc length: 4559 seconds
#
# Revision: 0
# Processed by: cddbd v1.5.1PL2 Copyright (c) Steve Scherf et al.
# Submitted via: CDex 1.51
#
DISCID=f311cd10
DTITLE=Various Artist - Supernatural compilation vol.1
DYEAR=1900
DGENRE=Jazz
TTITLE0=Sun groove andy mandello rmx - Green cable feat.Andy Mandello
TTITLE1=Jazz fuzzion - Green cable feat.Mattoss
TTITLE2=Flashdance - Deep dish
TTITLE3=(Escape) My heart - 49ers
TTITLE4=My mood - Furilla
TTITLE5=Dance (disco heat) - Memi vs Bini and Martini
TTITLE6=Essential - Fabrizio Rubessi
TTITLE7=It's good enough - Fabio M. feat Angie Brown
TTITLE8=Gipsy - Gipsy
TTITLE9=Make your move - Dave Armstrong
TTITLE10=Keep pushin' 2003 - Inaya day
TTITLE11=Is it' cos i'm cool? - Mousse T. feat.Emma Lanford
TTITLE12=Let the sunshine in - 49ers feat.Ann Marie Smith
TTITLE13=Afrodisiak - Furilla@Joy
TTITLE14=The deep rhythim - Green cable feat.Mattoss
TTITLE15=Kiss and tell - Green cable feat.Mattoss
EXTD=
EXTT0=
EXTT1=
EXTT2=
EXTT3=
EXTT4=
EXTT5=
EXTT6=
EXTT7=
EXTT8=
EXTT9=
EXTT10=
EXTT11=
EXTT12=
EXTT13=
EXTT14=
EXTT15=
PLAYORDER=
